#!OML:ASF F:\VICON\USERDATA\INSTALL\rory3\rory3.ASF
:FULLY-SPECIFIED
:DEGREES
225
root 4.54304 17.2455 2.34656 18.5304 -5.17492 -9.67972
lowerback 0.629602 -0.810707 5.87487
upperback -3.70464 -0.788465 3.88288
thorax -4.21967 -0.525741 0.766071
lowerneck -13.4575 -1.02093 -2.18251
upperneck 40.1368 -1.21488 0.325969
head 16.8109 -0.85691 0.303191
rclavicle -6.21823e-015 2.41772e-014
rhumerus 23.0089 4.87453 -16.3588
rradius 97.0652
rwrist -28.3904
rhand -6.8868 -43.6254
rfingers 7.12502
rthumb 18.9797 -72.7194
lclavicle -6.21823e-015 2.41772e-014
lhumerus 39.7201 9.11168 5.63775
lradius 37.0291
lwrist 37.8017
lhand -24.4453 -21.1039
lfingers 7.12502
lthumb 2.04728 8.86603
rfemur -25.596 7.45852 4.64488
rtibia 38.3005
rfoot 18.2409 -8.23409
rtoes -25.7223
lfemur -37.629 -1.11694 -17.3018
ltibia 38.8162
lfoot -17.7232 5.39022
ltoes 11.9922
226
root 4.54398 17.2405 2.34354 18.5469 -5.22992 -9.83076
lowerback 0.778217 -0.794028 5.86764
upperback -3.72301 -0.749919 3.93725
thorax -4.32164 -0.507357 0.828008
lowerneck -13.443 -1.06398 -2.22264
upperneck 40.1418 -1.29071 0.376145
head 16.8124 -0.887765 0.319358
rclavicle -4.07198e-014 6.46547e-014
rhumerus 22.7989 5.33491 -16.7206
rradius 96.7676
rwrist -27.8629
rhand -6.7772 -43.5188
rfingers 7.12502
rthumb 19.0851 -72.6024
lclavicle -4.07198e-014 6.46547e-014
lhumerus 39.6336 8.98107 6.26764
lradius 36.8267
lwrist 36.8554
lhand -23.8014 -20.7727
lfingers 7.12502
lthumb 2.66916 9.1903
rfemur -25.6998 7.60725 4.75196
rtibia 38.3805
rfoot 18.4506 -7.70843
rtoes -26.8578
lfemur -37.7483 -1.10287 -17.1365
ltibia 39.0121
lfoot -17.7994 5.47956
ltoes 12.4874
227
root 4.55249 17.2399 2.34811 18.5611 -5.15601 -10.0363
lowerback 0.785711 -0.73696 6.14027
upperback -3.63304 -0.670735 3.92657
thorax -4.23466 -0.474572 0.66033
lowerneck -13.5021 -1.16567 -2.30942
upperneck 40.0726 -1.48838 0.557827
head 16.7964 -0.955463 0.381202
rclavicle 2.10712e-014 -1.46604e-014
rhumerus 22.3788 5.63992 -17.0397
rradius 96.6089
rwrist -27.6146
rhand -7.56526 -43.6661
rfingers 7.12502
rthumb 18.3271 -72.8227
lclavicle 2.10712e-014 -1.46604e-014
lhumerus 39.7215 8.89696 6.75021
lradius 36.6668
lwrist 36.1986
lhand -22.4642 -19.853
lfingers 7.12502
lthumb 3.96047 10.0899
rfemur -25.7128 7.61605 4.94172
rtibia 38.4928
rfoot 18.4602 -7.22811
rtoes -27.7576
lfemur -37.8287 -1.20158 -16.9037
ltibia 39.2074
lfoot -17.9099 5.54705
ltoes 12.6056
228
root 4.55887 17.2355 2.34449 18.5559 -5.06611 -10.1312
lowerback 0.827487 -0.675991 6.302
upperback -3.585 -0.584054 3.90435
thorax -4.2082 -0.435946 0.543366
lowerneck -13.4417 -1.29755 -2.39015
upperneck 40.0842 -1.68552 0.60924
head 16.7937 -1.04089 0.384409
rclavicle 1.88845e-014 1.1281e-014
rhumerus 21.8844 5.97923 -17.2642
rradius 96.235
rwrist -27.1764
rhand -8.66747 -42.9852
rfingers 7.12502
rthumb 17.2665 -72.2382
lclavicle 1.88845e-014 1.1281e-014
lhumerus 39.7577 8.73267 7.23301
lradius 36.5768
lwrist 35.7908
lhand -21.4869 -19.2691
lfingers 7.12502
lthumb 4.90424 10.6541
rfemur -25.7429 7.57794 5.0259
rtibia 38.6249
rfoot 18.4464 -6.90675
rtoes -28.5607
lfemur -37.9341 -1.35353 -16.7647
ltibia 39.3811
lfoot -17.9631 5.57517
ltoes 13.5878
